<svg xmlns="http://www.w3.org/2000/svg" viewBox="0 0 800 400" width="800" height="400">
  <defs>
    <linearGradient id="bg" x1="0%" y1="0%" x2="100%" y2="100%">
      <stop offset="0%" style="stop-color:#0f172a"/>
      <stop offset="100%" style="stop-color:#1e293b"/>
    </linearGradient>
  </defs>
  <rect width="800" height="400" fill="url(#bg)"/>
  <pattern id="grid" width="40" height="40" patternUnits="userSpaceOnUse">
    <path d="M 40 0 L 0 0 0 40" fill="none" stroke="#1e293b" stroke-width="0.5"/>
  </pattern>
  <rect width="800" height="400" fill="url(#grid)"/>
  <!-- Shield icon -->
  <path d="M 400 100 L 450 120 L 450 175 Q 450 210 400 230 Q 350 210 350 175 L 350 120 Z" fill="rgba(136,19,55,0.4)" stroke="#fb7185" stroke-width="2"/>
  <text x="400" y="175" fill="#fb7185" font-family="monospace" font-size="28" text-anchor="middle">⚠</text>
  <!-- Attack vectors -->
  <line x1="200" y1="130" x2="345" y2="155" stroke="#fb7185" stroke-width="1.5" stroke-dasharray="4,3" opacity="0.6"/>
  <line x1="600" y1="130" x2="455" y2="155" stroke="#fb7185" stroke-width="1.5" stroke-dasharray="4,3" opacity="0.6"/>
  <line x1="250" y1="220" x2="348" y2="195" stroke="#fb7185" stroke-width="1.5" stroke-dasharray="4,3" opacity="0.6"/>
  <line x1="550" y1="220" x2="452" y2="195" stroke="#fb7185" stroke-width="1.5" stroke-dasharray="4,3" opacity="0.6"/>
  <!-- Attack labels -->
  <rect x="100" y="115" width="120" height="30" rx="4" fill="rgba(136,19,55,0.3)" stroke="#fb7185" stroke-width="1"/>
  <text x="160" y="134" fill="#fb7185" font-family="monospace" font-size="10" text-anchor="middle">路由器令牌窃取</text>
  <rect x="540" y="115" width="120" height="30" rx="4" fill="rgba(136,19,55,0.3)" stroke="#fb7185" stroke-width="1"/>
  <text x="600" y="134" fill="#fb7185" font-family="monospace" font-size="10" text-anchor="middle">167个漏洞</text>
  <rect x="120" y="210" width="140" height="30" rx="4" fill="rgba(120,53,15,0.3)" stroke="#fbbf24" stroke-width="1"/>
  <text x="190" y="229" fill="#fbbf24" font-family="monospace" font-size="10" text-anchor="middle">IoT僵尸网络</text>
  <rect x="500" y="210" width="120" height="30" rx="4" fill="rgba(120,53,15,0.3)" stroke="#fbbf24" stroke-width="1"/>
  <text x="560" y="229" fill="#fbbf24" font-family="monospace" font-size="10" text-anchor="middle">擦除器攻击</text>
  <!-- Bottom stats -->
  <rect x="120" y="290" width="170" height="55" rx="6" fill="rgba(76,29,149,0.3)" stroke="#a78bfa" stroke-width="1"/>
  <text x="205" y="312" fill="#a78bfa" font-family="monospace" font-size="11" text-anchor="middle">国家级攻击 ↑ 300%</text>
  <text x="205" y="332" fill="#94a3b8" font-family="monospace" font-size="9" text-anchor="middle">Russia / Iran / DPRK</text>
  <rect x="320" y="290" width="170" height="55" rx="6" fill="rgba(8,51,68,0.4)" stroke="#22d3ee" stroke-width="1"/>
  <text x="405" y="312" fill="#22d3ee" font-family="monospace" font-size="11" text-anchor="middle">勒索软件头目落网</text>
  <text x="405" y="332" fill="#94a3b8" font-family="monospace" font-size="9" text-anchor="middle">GandCrab / REvil</text>
  <rect x="520" y="290" width="170" height="55" rx="6" fill="rgba(6,78,59,0.4)" stroke="#34d399" stroke-width="1"/>
  <text x="605" y="312" fill="#34d399" font-family="monospace" font-size="11" text-anchor="middle">僵尸网络被摧毁</text>
  <text x="605" y="332" fill="#94a3b8" font-family="monospace" font-size="9" text-anchor="middle">4个DDoS网络</text>
  <!-- Title -->
  <text x="400" y="42" fill="#e2e8f0" font-family="sans-serif" font-size="24" font-weight="bold" text-anchor="middle">2026网络安全态势升级</text>
  <text x="400" y="68" fill="#94a3b8" font-family="sans-serif" font-size="14" text-anchor="middle">国家级攻击、基础设施漏洞与反击行动</text>
</svg>