<svg xmlns="http://www.w3.org/2000/svg" viewBox="0 0 1200 630" width="1200" height="630">
  <defs>
    <linearGradient id="bg" x1="0" y1="0" x2="1" y2="1">
      <stop offset="0%" stop-color="#0f172a"/>
      <stop offset="100%" stop-color="#1e1b4b"/>
    </linearGradient>
    <linearGradient id="accent" x1="0" y1="0" x2="1" y2="0">
      <stop offset="0%" stop-color="#22d3ee"/>
      <stop offset="100%" stop-color="#34d399"/>
    </linearGradient>
    <filter id="glow">
      <feGaussianBlur stdDeviation="3" result="blur"/>
      <feMerge><feMergeNode in="blur"/><feMergeNode in="SourceGraphic"/></feMerge>
    </filter>
  </defs>
  <rect width="1200" height="630" fill="url(#bg)"/>
  <!-- Grid -->
  <g stroke="#1e293b" stroke-width="0.5" opacity="0.5">
    <line x1="0" y1="0" x2="0" y2="630" /><line x1="40" y1="0" x2="40" y2="630" /><line x1="80" y1="0" x2="80" y2="630" /><line x1="120" y1="0" x2="120" y2="630" /><line x1="160" y1="0" x2="160" y2="630" /><line x1="200" y1="0" x2="200" y2="630" /><line x1="240" y1="0" x2="240" y2="630" /><line x1="280" y1="0" x2="280" y2="630" /><line x1="320" y1="0" x2="320" y2="630" /><line x1="360" y1="0" x2="360" y2="630" /><line x1="400" y1="0" x2="400" y2="630" /><line x1="440" y1="0" x2="440" y2="630" /><line x1="480" y1="0" x2="480" y2="630" /><line x1="520" y1="0" x2="520" y2="630" /><line x1="560" y1="0" x2="560" y2="630" /><line x1="600" y1="0" x2="600" y2="630" />
    <line x1="0" y1="40" x2="1200" y2="40" /><line x1="0" y1="80" x2="1200" y2="80" /><line x1="0" y1="120" x2="1200" y2="120" /><line x1="0" y1="160" x2="1200" y2="160" /><line x1="0" y1="200" x2="1200" y2="200" /><line x1="0" y1="240" x2="1200" y2="240" /><line x1="0" y1="280" x2="1200" y2="280" /><line x1="0" y1="320" x2="1200" y2="320" /><line x1="0" y1="360" x2="1200" y2="360" /><line x1="0" y1="400" x2="1200" y2="400" /><line x1="0" y1="440" x2="1200" y2="440" /><line x1="0" y1="480" x2="1200" y2="480" /><line x1="0" y1="520" x2="1200" y2="520" /><line x1="0" y1="560" x2="1200" y2="560" /><line x1="0" y1="600" x2="1200" y2="600" />
  </g>
  <!-- Central MoE Hub -->
  <circle cx="600" cy="280" r="60" fill="rgba(8,51,68,0.6)" stroke="#22d3ee" stroke-width="2" filter="url(#glow)"/>
  <text x="600" y="275" text-anchor="middle" fill="#22d3ee" font-family="monospace" font-size="16" font-weight="bold">MoE</text>
  <text x="600" y="295" text-anchor="middle" fill="#94a3b8" font-family="monospace" font-size="11">Router</text>
  <!-- Expert Nodes -->
  <g filter="url(#glow)">
    <circle cx="380" cy="180" r="35" fill="rgba(6,78,59,0.5)" stroke="#34d399" stroke-width="1.5"/>
    <text x="380" y="183" text-anchor="middle" fill="#34d399" font-family="monospace" font-size="10">Expert 1</text>
    <circle cx="480" cy="130" r="35" fill="rgba(6,78,59,0.5)" stroke="#34d399" stroke-width="1.5"/>
    <text x="480" y="133" text-anchor="middle" fill="#34d399" font-family="monospace" font-size="10">Expert 2</text>
    <circle cx="720" cy="130" r="35" fill="rgba(6,78,59,0.5)" stroke="#34d399" stroke-width="1.5"/>
    <text x="720" y="133" text-anchor="middle" fill="#34d399" font-family="monospace" font-size="10">Expert N</text>
    <circle cx="820" cy="180" r="35" fill="rgba(6,78,59,0.5)" stroke="#34d399" stroke-width="1.5"/>
    <text x="820" y="183" text-anchor="middle" fill="#34d399" font-family="monospace" font-size="10">Expert M</text>
    <circle cx="380" cy="380" r="35" fill="rgba(6,78,59,0.3)" stroke="#34d399" stroke-width="1" stroke-dasharray="4,3"/>
    <text x="380" y="383" text-anchor="middle" fill="#34d399" font-family="monospace" font-size="9" opacity="0.6">Inactive</text>
    <circle cx="820" cy="380" r="35" fill="rgba(6,78,59,0.3)" stroke="#34d399" stroke-width="1" stroke-dasharray="4,3"/>
    <text x="820" y="383" text-anchor="middle" fill="#34d399" font-family="monospace" font-size="9" opacity="0.6">Inactive</text>
  </g>
  <!-- Connections -->
  <line x1="545" y1="260" x2="415" y2="200" stroke="#22d3ee" stroke-width="1.5" opacity="0.7"/>
  <line x1="565" y1="240" x2="490" y2="165" stroke="#22d3ee" stroke-width="1.5" opacity="0.7"/>
  <line x1="635" y1="240" x2="710" y2="165" stroke="#22d3ee" stroke-width="1.5" opacity="0.7"/>
  <line x1="655" y1="260" x2="785" y2="200" stroke="#22d3ee" stroke-width="1.5" opacity="0.7"/>
  <line x1="555" y1="310" x2="405" y2="360" stroke="#1e293b" stroke-width="1" stroke-dasharray="3,3" opacity="0.4"/>
  <line x1="645" y1="310" x2="795" y2="360" stroke="#1e293b" stroke-width="1" stroke-dasharray="3,3" opacity="0.4"/>
  <!-- Title -->
  <text x="600" y="500" text-anchor="middle" fill="url(#accent)" font-family="monospace" font-size="42" font-weight="bold">DeepSeek V4</text>
  <text x="600" y="540" text-anchor="middle" fill="#94a3b8" font-family="monospace" font-size="18">1.6T Parameters · 49B Active · 1M Context</text>
  <!-- Stats -->
  <text x="100" y="560" fill="#22d3ee" font-family="monospace" font-size="13">PRO: 1.6T / 49B</text>
  <text x="100" y="580" fill="#34d399" font-family="monospace" font-size="13">FLASH: 284B / 13B</text>
  <text x="950" y="560" text-anchor="end" fill="#fbbf24" font-family="monospace" font-size="13">MIT Licensed</text>
  <text x="950" y="580" text-anchor="end" fill="#fbbf24" font-family="monospace" font-size="13">Huawei Ascend Ready</text>
</svg>