<svg xmlns="http://www.w3.org/2000/svg" viewBox="0 0 1200 630">
  <defs>
    <linearGradient id="bg" x1="0%" y1="0%" x2="100%" y2="100%">
      <stop offset="0%" style="stop-color:#0a0a1a"/>
      <stop offset="100%" style="stop-color:#1a0a2e"/>
    </linearGradient>
  </defs>
  <rect width="1200" height="630" fill="url(#bg)"/>
  <g transform="translate(600,200)">
    <line x1="0" y1="-80" x2="0" y2="80" stroke="#00d4ff" stroke-width="3"/>
    <line x1="-40" y1="-40" x2="-80" y2="-100" stroke="#00d4ff" stroke-width="3"/>
    <line x1="40" y1="-40" x2="80" y2="-100" stroke="#00d4ff" stroke-width="3"/>
    <line x1="-20" y1="80" x2="-40" y2="160" stroke="#00d4ff" stroke-width="3"/>
    <line x1="20" y1="80" x2="40" y2="160" stroke="#00d4ff" stroke-width="3"/>
    <circle cx="0" cy="-100" r="25" fill="none" stroke="#00d4ff" stroke-width="3"/>
    <line x1="-50" y1="-40" x2="-90" y2="-100" stroke="#ff6b35" stroke-width="2" stroke-dasharray="5,5"/>
    <line x1="50" y1="-40" x2="90" y2="-100" stroke="#ff6b35" stroke-width="2" stroke-dasharray="5,5"/>
    <line x1="-30" y1="80" x2="-50" y2="160" stroke="#ff6b35" stroke-width="2" stroke-dasharray="5,5"/>
    <line x1="30" y1="80" x2="50" y2="160" stroke="#ff6b35" stroke-width="2" stroke-dasharray="5,5"/>
  </g>
  <text x="600" y="430" text-anchor="middle" font-family="sans-serif" font-size="32" fill="#e0e0e0">轻量外骨骼的消费级突围</text>
  <text x="600" y="480" text-anchor="middle" font-family="sans-serif" font-size="22" fill="#8b949e">从 20kg → 3kg · $80,000 → $3,000 · 医疗 → 户外</text>
  <rect x="200" y="540" width="80" height="6" fill="#00d4ff" rx="3"/>
  <rect x="300" y="540" width="80" height="6" fill="#ff6b35" rx="3"/>
  <text x="600" y="550" text-anchor="middle" font-family="monospace" font-size="14" fill="#666">AUGMENTATION · 2026</text>
</svg>