<svg xmlns="http://www.w3.org/2000/svg" viewBox="0 0 1200 630" width="1200" height="630">
  <defs>
    <linearGradient id="bg" x1="0" y1="0" x2="1" y2="1">
      <stop offset="0" stop-color="#0b1020"/>
      <stop offset="1" stop-color="#1a0b2e"/>
    </linearGradient>
    <linearGradient id="lock" x1="0" y1="0" x2="0" y2="1">
      <stop offset="0" stop-color="#7dd3fc"/>
      <stop offset="1" stop-color="#3b82f6"/>
    </linearGradient>
  </defs>
  <rect width="1200" height="630" fill="url(#bg)"/>
  <g opacity="0.15" stroke="#60a5fa" stroke-width="1">
    <path d="M0 80 H1200 M0 160 H1200 M0 240 H1200 M0 320 H1200 M0 400 H1200 M0 480 H1200 M0 560 H1200"/>
  </g>
  <g transform="translate(900,150)" opacity="0.85">
    <rect x="-120" y="0" width="240" height="180" rx="14" fill="none" stroke="url(#lock)" stroke-width="3"/>
    <path d="M-60 0 V-50 a60 60 0 0 1 120 0 V0" fill="none" stroke="url(#lock)" stroke-width="6"/>
    <text x="0" y="110" text-anchor="middle" fill="#fbbf24" font-family="monospace" font-size="42" font-weight="700">TEE</text>
    <text x="0" y="150" text-anchor="middle" fill="#94a3b8" font-family="monospace" font-size="18">enclave</text>
  </g>
  <g transform="translate(900,150)">
    <line x1="-180" y1="220" x2="180" y2="-40" stroke="#ef4444" stroke-width="4" stroke-dasharray="10 6"/>
    <text x="-200" y="250" fill="#ef4444" font-family="monospace" font-size="18">side-channel</text>
  </g>
  <text x="80" y="180" fill="#e2e8f0" font-family="ui-sans-serif,system-ui" font-size="56" font-weight="800">TEE 不是答案</text>
  <text x="80" y="260" fill="#7dd3fc" font-family="ui-sans-serif,system-ui" font-size="44" font-weight="700">而是新的攻击面</text>
  <text x="80" y="340" fill="#cbd5e1" font-family="ui-sans-serif,system-ui" font-size="26">WhatsApp Private Inference 审计的三道裂缝</text>
  <g transform="translate(80,400)" font-family="monospace" font-size="20" fill="#94a3b8">
    <text y="0">▸ 侧信道：MoE 专家激活泄露语义</text>
    <text y="34">▸ 信任根：三家芯片厂的司法单点</text>
    <text y="68">▸ 组合性：Prompt 注入撕碎机密边界</text>
  </g>
  <text x="80" y="590" fill="#64748b" font-family="monospace" font-size="16">2026 · 隐私计算深度分析</text>
</svg>
