<svg xmlns="http://www.w3.org/2000/svg" viewBox="0 0 1200 630">
  <defs>
    <linearGradient id="bg" x1="0%" y1="0%" x2="100%" y2="100%">
      <stop offset="0%" style="stop-color:#0d0d1f"/>
      <stop offset="100%" style="stop-color:#1a0a30"/>
    </linearGradient>
    <linearGradient id="wave" x1="0%" y1="0%" x2="100%" y2="0%">
      <stop offset="0%" style="stop-color:#ff006630"/>
      <stop offset="50%" style="stop-color:#ff0066"/>
      <stop offset="100%" style="stop-color:#ff006630"/>
    </linearGradient>
  </defs>
  <rect width="1200" height="630" fill="url(#bg)"/>
  <!-- Waveform -->
  <g transform="translate(0,315)">
    <rect x="50" y="-120" width="8" height="240" rx="4" fill="#ff0066" opacity="0.3"/>
    <rect x="70" y="-80" width="8" height="160" rx="4" fill="#ff0066" opacity="0.4"/>
    <rect x="90" y="-150" width="8" height="300" rx="4" fill="#ff0066" opacity="0.5"/>
    <rect x="110" y="-60" width="8" height="120" rx="4" fill="#ff0066" opacity="0.4"/>
    <rect x="130" y="-180" width="8" height="360" rx="4" fill="#ff0066" opacity="0.6"/>
    <rect x="150" y="-100" width="8" height="200" rx="4" fill="#ff0066" opacity="0.5"/>
    <rect x="170" y="-140" width="8" height="280" rx="4" fill="#ff0066" opacity="0.7"/>
    <rect x="190" y="-50" width="8" height="100" rx="4" fill="#ff0066" opacity="0.4"/>
    <rect x="210" y="-160" width="8" height="320" rx="4" fill="#ff0066" opacity="0.6"/>
    <rect x="230" y="-90" width="8" height="180" rx="4" fill="#ff0066" opacity="0.5"/>
    <rect x="250" y="-200" width="8" height="400" rx="4" fill="#ff0066" opacity="0.8"/>
    <rect x="270" y="-70" width="8" height="140" rx="4" fill="#ff0066" opacity="0.4"/>
    <rect x="290" y="-130" width="8" height="260" rx="4" fill="#ff0066" opacity="0.6"/>
    <rect x="310" y="-170" width="8" height="340" rx="4" fill="#ff0066" opacity="0.7"/>
    <rect x="330" y="-40" width="8" height="80" rx="4" fill="#ff0066" opacity="0.3"/>
  </g>
  <!-- AI/Robot icon area -->
  <circle cx="600" cy="280" r="120" fill="none" stroke="#ff006640" stroke-width="2"/>
  <circle cx="600" cy="280" r="80" fill="none" stroke="#ff006660" stroke-width="2"/>
  <circle cx="600" cy="280" r="40" fill="#ff006620"/>
  <text x="600" y="295" font-family="monospace" font-size="36" fill="#ff0066" text-anchor="middle">AI</text>
  <!-- Right waveform mirror -->
  <g transform="translate(700,315)">
    <rect x="170" y="-40" width="8" height="80" rx="4" fill="#ff0066" opacity="0.3"/>
    <rect x="190" y="-170" width="8" height="340" rx="4" fill="#ff0066" opacity="0.7"/>
    <rect x="210" y="-130" width="8" height="260" rx="4" fill="#ff0066" opacity="0.6"/>
    <rect x="230" y="-70" width="8" height="140" rx="4" fill="#ff0066" opacity="0.4"/>
    <rect x="250" y="-200" width="8" height="400" rx="4" fill="#ff0066" opacity="0.8"/>
    <rect x="270" y="-90" width="8" height="180" rx="4" fill="#ff0066" opacity="0.5"/>
    <rect x="290" y="-160" width="8" height="320" rx="4" fill="#ff0066" opacity="0.6"/>
    <rect x="310" y="-50" width="8" height="100" rx="4" fill="#ff0066" opacity="0.4"/>
    <rect x="330" y="-140" width="8" height="280" rx="4" fill="#ff0066" opacity="0.7"/>
    <rect x="350" y="-100" width="8" height="200" rx="4" fill="#ff0066" opacity="0.5"/>
    <rect x="370" y="-180" width="8" height="360" rx="4" fill="#ff0066" opacity="0.6"/>
    <rect x="390" y="-60" width="8" height="120" rx="4" fill="#ff0066" opacity="0.4"/>
    <rect x="410" y="-150" width="8" height="300" rx="4" fill="#ff0066" opacity="0.5"/>
    <rect x="430" y="-80" width="8" height="160" rx="4" fill="#ff0066" opacity="0.4"/>
    <rect x="450" y="-120" width="8" height="240" rx="4" fill="#ff0066" opacity="0.3"/>
  </g>
  <!-- 44% text -->
  <text x="600" y="530" font-family="monospace" font-size="72" fill="#ff0066" text-anchor="middle" font-weight="bold" opacity="0.8">44%</text>
  <text x="600" y="580" font-family="sans-serif" font-size="24" fill="#ff006680" text-anchor="middle">AI-GENERATED</text>
</svg>
