<svg xmlns="http://www.w3.org/2000/svg" viewBox="0 0 1200 630">
  <defs>
    <linearGradient id="bg" x1="0%" y1="0%" x2="100%" y2="100%">
      <stop offset="0%" style="stop-color:#0a0a1a"/>
      <stop offset="100%" style="stop-color:#1a0a2e"/>
    </linearGradient>
    <linearGradient id="accent" x1="0%" y1="0%" x2="100%" y2="0%">
      <stop offset="0%" style="stop-color:#00d4ff"/>
      <stop offset="100%" style="stop-color:#7b2ff7"/>
    </linearGradient>
  </defs>
  <rect width="1200" height="630" fill="url(#bg)"/>
  <!-- Grid pattern -->
  <g opacity="0.08">
    <line x1="0" y1="0" x2="0" y2="630" stroke="#00d4ff" stroke-width="1"/>
    <line x1="60" y1="0" x2="60" y2="630" stroke="#00d4ff" stroke-width="1"/>
    <line x1="120" y1="0" x2="120" y2="630" stroke="#00d4ff" stroke-width="1"/>
    <line x1="180" y1="0" x2="180" y2="630" stroke="#00d4ff" stroke-width="1"/>
    <line x1="240" y1="0" x2="240" y2="630" stroke="#00d4ff" stroke-width="1"/>
    <line x1="0" y1="60" x2="1200" y2="60" stroke="#00d4ff" stroke-width="1"/>
    <line x1="0" y1="120" x2="1200" y2="120" stroke="#00d4ff" stroke-width="1"/>
    <line x1="0" y1="180" x2="1200" y2="180" stroke="#00d4ff" stroke-width="1"/>
  </g>
  <!-- Memory cell representations -->
  <g transform="translate(700, 150)">
    <rect x="0" y="0" width="80" height="80" rx="8" fill="none" stroke="#00d4ff" stroke-width="2" opacity="0.6"/>
    <circle cx="40" cy="40" r="20" fill="none" stroke="#7b2ff7" stroke-width="2"/>
    <path d="M30 40 L50 40" stroke="#00d4ff" stroke-width="2"/>
    <text x="40" y="110" fill="#888" font-family="monospace" font-size="12" text-anchor="middle">STT-MRAM</text>
  </g>
  <g transform="translate(820, 150)">
    <rect x="0" y="0" width="80" height="80" rx="8" fill="none" stroke="#ff4444" stroke-width="2" opacity="0.4"/>
    <line x1="20" y1="20" x2="60" y2="60" stroke="#ff4444" stroke-width="2" opacity="0.4"/>
    <line x1="60" y1="20" x2="20" y2="60" stroke="#ff4444" stroke-width="2" opacity="0.4"/>
    <text x="40" y="110" fill="#666" font-family="monospace" font-size="12" text-anchor="middle">eFlash ✗</text>
  </g>
  <g transform="translate(940, 150)">
    <rect x="0" y="0" width="80" height="80" rx="8" fill="none" stroke="#00d4ff" stroke-width="2" opacity="0.3"/>
    <text x="40" y="45" fill="#555" font-family="monospace" font-size="14" text-anchor="middle">ReRAM</text>
    <text x="40" y="110" fill="#555" font-family="monospace" font-size="12" text-anchor="middle">争夺中</text>
  </g>
  <!-- Title -->
  <text x="60" y="200" fill="#ffffff" font-family="sans-serif" font-size="42" font-weight="bold">MRAM 联盟成立</text>
  <text x="60" y="260" fill="#00d4ff" font-family="sans-serif" font-size="28">嵌入式非易失性存储的临界点</text>
  <rect x="60" y="290" width="300" height="3" fill="url(#accent)"/>
  <text x="60" y="340" fill="#aaaaaa" font-family="sans-serif" font-size="18">Flash 和 SRAM 的替代者终于到来</text>
  <!-- Tag -->
  <rect x="60" y="530" width="80" height="30" rx="15" fill="none" stroke="#00d4ff" stroke-width="1"/>
  <text x="100" y="550" fill="#00d4ff" font-family="monospace" font-size="13" text-anchor="middle">半导体</text>
</svg>