<svg xmlns="http://www.w3.org/2000/svg" viewBox="0 0 1200 630">
  <defs>
    <linearGradient id="bg4" x1="0%" y1="0%" x2="100%" y2="100%">
      <stop offset="0%" style="stop-color:#0a1a0a"/>
      <stop offset="100%" style="stop-color:#1a2a1a"/>
    </linearGradient>
  </defs>
  <rect width="1200" height="630" fill="url(#bg4)"/>
  <!-- Robot dog silhouette (simplified) -->
  <rect x="350" y="250" width="200" height="80" rx="15" fill="none" stroke="#00cc88" stroke-width="3"/>
  <rect x="340" y="240" width="50" height="30" rx="8" fill="none" stroke="#00cc88" stroke-width="2"/>
  <line x1="380" y1="330" x2="370" y2="400" stroke="#00cc88" stroke-width="3"/>
  <line x1="420" y1="330" x2="410" y2="400" stroke="#00cc88" stroke-width="3"/>
  <line x1="510" y1="330" x2="520" y2="400" stroke="#00cc88" stroke-width="3"/>
  <line x1="530" y1="330" x2="540" y2="400" stroke="#00cc88" stroke-width="3"/>
  <!-- Thought bubble -->
  <circle cx="320" y="210" r="8" fill="#00cc88" opacity="0.3"/>
  <circle cx="290" y="180" r="12" fill="#00cc88" opacity="0.3"/>
  <ellipse cx="250" cy="140" rx="80" ry="40" fill="none" stroke="#00cc88" stroke-width="2" opacity="0.5"/>
  <text x="250" y="145" text-anchor="middle" font-family="Arial,sans-serif" font-size="16" fill="#00cc88">推理中...</text>
  <!-- Arrow -->
  <text x="650" y="300" text-anchor="middle" font-family="Arial,sans-serif" font-size="48" fill="#00cc8840">→</text>
  <!-- City/real world -->
  <rect x="750" y="280" width="60" height="120" fill="#00cc8820" stroke="#00cc88" stroke-width="1"/>
  <rect x="830" y="240" width="60" height="160" fill="#00cc8820" stroke="#00cc88" stroke-width="1"/>
  <rect x="910" y="300" width="60" height="100" fill="#00cc8820" stroke="#00cc88" stroke-width="1"/>
  <text x="600" y="90" text-anchor="middle" font-family="Arial,sans-serif" font-size="40" font-weight="bold" fill="#fff">具身智能</text>
  <text x="600" y="130" text-anchor="middle" font-family="Arial,sans-serif" font-size="24" fill="#00cc88">从实验室到街头</text>
  <text x="600" y="500" text-anchor="middle" font-family="Arial,sans-serif" font-size="20" fill="#00cc88">Spot推理 · 京东机器人急救 · NVIDIA Physical AI</text>
  <text x="600" y="570" text-anchor="middle" font-family="Arial,sans-serif" font-size="18" fill="#555">前沿科技 · 深度分析</text>
</svg>