<svg xmlns="http://www.w3.org/2000/svg" viewBox="0 0 800 400">
  <defs>
    <linearGradient id="bg2" x1="0%" y1="0%" x2="100%" y2="100%">
      <stop offset="0%" style="stop-color:#1a1a2e"/>
      <stop offset="100%" style="stop-color:#0a0a1a"/>
    </linearGradient>
    <radialGradient id="glow2" cx="50%" cy="50%">
      <stop offset="0%" style="stop-color:#e94560;stop-opacity:0.3"/>
      <stop offset="100%" style="stop-color:#e94560;stop-opacity:0"/>
    </radialGradient>
  </defs>
  <rect width="800" height="400" fill="url(#bg2)"/>
  <circle cx="400" cy="180" r="150" fill="url(#glow2)"/>
  <path d="M400 100 L420 140 L460 140 L430 165 L440 200 L400 180 L360 200 L370 165 L340 140 L380 140 Z" fill="none" stroke="#e94560" stroke-width="2" opacity="0.6"/>
  <circle cx="400" cy="160" r="30" fill="none" stroke="#ff6b6b" stroke-width="1.5" stroke-dasharray="5,3"/>
  <text x="390" y="165" font-family="monospace" font-size="14" fill="#ff6b6b">AI</text>
  <rect x="370" y="210" width="60" height="40" rx="5" fill="none" stroke="#4ecdc4" stroke-width="1.5"/>
  <line x1="380" y1="225" x2="420" y2="225" stroke="#4ecdc4" stroke-width="1"/>
  <line x1="380" y1="235" x2="410" y2="235" stroke="#4ecdc4" stroke-width="1"/>
  <line x1="350" y1="230" x2="370" y2="230" stroke="#4ecdc4" stroke-width="1" stroke-dasharray="3,2"/>
  <line x1="430" y1="230" x2="450" y2="230" stroke="#4ecdc4" stroke-width="1" stroke-dasharray="3,2"/>
  <text x="400" y="350" font-family="sans-serif" font-size="24" fill="white" text-anchor="middle" font-weight="bold">Anthropic Mythos的安全悖论</text>
  <text x="400" y="378" font-family="sans-serif" font-size="13" fill="#8899aa" text-anchor="middle">当最强AI模型"太危险而不能发布"意味着什么</text>
</svg>