<svg xmlns="http://www.w3.org/2000/svg" viewBox="0 0 800 400">
  <defs>
    <linearGradient id="bg4" x1="0%" y1="0%" x2="100%" y2="100%">
      <stop offset="0%" style="stop-color:#1a1a2e"/>
      <stop offset="100%" style="stop-color:#1b2838"/>
    </linearGradient>
  </defs>
  <rect width="800" height="400" fill="url(#bg4)"/>
  <g opacity="0.5">
    <rect x="100" y="100" width="80" height="50" rx="3" fill="none" stroke="#f7dc6f" stroke-width="1.5"/>
    <text x="140" y="130" font-family="monospace" font-size="10" fill="#f7dc6f" text-anchor="middle">TSMC</text>
    <rect x="250" y="80" width="80" height="50" rx="3" fill="none" stroke="#e94560" stroke-width="1.5"/>
    <text x="290" y="110" font-family="monospace" font-size="10" fill="#e94560" text-anchor="middle">Intel</text>
    <rect x="400" y="100" width="80" height="50" rx="3" fill="none" stroke="#4ecdc4" stroke-width="1.5"/>
    <text x="440" y="130" font-family="monospace" font-size="10" fill="#4ecdc4" text-anchor="middle">Samsung</text>
    <rect x="550" y="90" width="80" height="50" rx="3" fill="none" stroke="#8899aa" stroke-width="1.5"/>
    <text x="590" y="120" font-family="monospace" font-size="10" fill="#8899aa" text-anchor="middle">SMIC</text>
  </g>
  <g opacity="0.3">
    <rect x="120" y="200" width="560" height="80" rx="5" fill="none" stroke="#333" stroke-width="1"/>
    <line x1="260" y1="200" x2="260" y2="280" stroke="#333" stroke-width="1"/>
    <line x1="400" y1="200" x2="400" y2="280" stroke="#333" stroke-width="1"/>
    <line x1="540" y1="200" x2="540" y2="280" stroke="#333" stroke-width="1"/>
    <text x="190" y="245" font-family="monospace" font-size="9" fill="#666" text-anchor="middle">2nm</text>
    <text x="330" y="245" font-family="monospace" font-size="9" fill="#666" text-anchor="middle">3nm</text>
    <text x="470" y="245" font-family="monospace" font-size="9" fill="#666" text-anchor="middle">5nm</text>
    <text x="610" y="245" font-family="monospace" font-size="9" fill="#666" text-anchor="middle">7nm</text>
  </g>
  <text x="400" y="340" font-family="sans-serif" font-size="24" fill="white" text-anchor="middle" font-weight="bold">TSMC与芯片制造的地缘博弈</text>
  <text x="400" y="368" font-family="sans-serif" font-size="13" fill="#8899aa" text-anchor="middle">当CC Wei告诉Musk"建晶圆厂没有捷径"</text>
</svg>