<svg xmlns="http://www.w3.org/2000/svg" viewBox="0 0 1200 630">
  <defs>
    <linearGradient id="bg5" x1="0%" y1="0%" x2="100%" y2="100%">
      <stop offset="0%" style="stop-color:#0d1117"/>
      <stop offset="100%" style="stop-color:#111827"/>
    </linearGradient>
  </defs>
  <rect width="1200" height="630" fill="url(#bg5)"/>
  <!-- Main chip -->
  <rect x="450" y="180" width="300" height="250" rx="8" fill="none" stroke="#10b981" stroke-width="2" opacity="0.6"/>
  <!-- Chiplets inside -->
  <rect x="470" y="200" width="80" height="60" rx="4" fill="#10b981" opacity="0.15" stroke="#10b981" stroke-width="1" />
  <text x="510" y="235" text-anchor="middle" font-family="monospace" font-size="11" fill="#10b981" opacity="0.7">CPU</text>
  <rect x="570" y="200" width="80" height="60" rx="4" fill="#3b82f6" opacity="0.15" stroke="#3b82f6" stroke-width="1"/>
  <text x="610" y="235" text-anchor="middle" font-family="monospace" font-size="11" fill="#3b82f6" opacity="0.7">GPU</text>
  <rect x="650" y="200" width="80" height="60" rx="4" fill="#f59e0b" opacity="0.15" stroke="#f59e0b" stroke-width="1"/>
  <text x="690" y="235" text-anchor="middle" font-family="monospace" font-size="11" fill="#f59e0b" opacity="0.7">NPU</text>
  <rect x="470" y="280" width="120" height="60" rx="4" fill="#8b5cf6" opacity="0.15" stroke="#8b5cf6" stroke-width="1"/>
  <text x="530" y="315" text-anchor="middle" font-family="monospace" font-size="11" fill="#8b5cf6" opacity="0.7">HBM</text>
  <rect x="610" y="280" width="120" height="60" rx="4" fill="#ec4899" opacity="0.15" stroke="#ec4899" stroke-width="1"/>
  <text x="670" y="315" text-anchor="middle" font-family="monospace" font-size="11" fill="#ec4899" opacity="0.7">I/O</text>
  <rect x="470" y="360" width="260" height="50" rx="4" fill="#06b6d4" opacity="0.1" stroke="#06b6d4" stroke-width="1"/>
  <text x="600" y="390" text-anchor="middle" font-family="monospace" font-size="11" fill="#06b6d4" opacity="0.7">INTERPOSER / CoWoS</text>
  <!-- Connection pins -->
  <line x1="480" y1="430" x2="480" y2="460" stroke="#10b981" stroke-width="1" opacity="0.3"/>
  <line x1="520" y1="430" x2="520" y2="460" stroke="#10b981" stroke-width="1" opacity="0.3"/>
  <line x1="560" y1="430" x2="560" y2="460" stroke="#10b981" stroke-width="1" opacity="0.3"/>
  <line x1="600" y1="430" x2="600" y2="460" stroke="#10b981" stroke-width="1" opacity="0.3"/>
  <line x1="640" y1="430" x2="640" y2="460" stroke="#10b981" stroke-width="1" opacity="0.3"/>
  <line x1="680" y1="430" x2="680" y2="460" stroke="#10b981" stroke-width="1" opacity="0.3"/>
  <line x1="720" y1="430" x2="720" y2="460" stroke="#10b981" stroke-width="1" opacity="0.3"/>
  <!-- TSMC label -->
  <text x="600" y="160" text-anchor="middle" font-family="system-ui" font-size="14" fill="#10b981" opacity="0.5">TSMC 2026</text>
  <!-- Title -->
  <text x="600" y="530" text-anchor="middle" font-family="system-ui" font-size="28" fill="white" font-weight="bold" opacity="0.9">芯片架构的范式转移</text>
  <text x="600" y="565" text-anchor="middle" font-family="system-ui" font-size="16" fill="#10b981" opacity="0.7">Chiplet × Edge AI × 后摩尔时代</text>
</svg>