<svg xmlns="http://www.w3.org/2000/svg" viewBox="0 0 1200 630">
  <defs>
    <linearGradient id="bg" x1="0%" y1="0%" x2="100%" y2="100%">
      <stop offset="0%" style="stop-color:#0a0a1a"/>
      <stop offset="100%" style="stop-color:#2e1a0a"/>
    </linearGradient>
    <radialGradient id="plasma" cx="50%" cy="50%" r="50%">
      <stop offset="0%" style="stop-color:#ff6b00;stop-opacity:0.8"/>
      <stop offset="50%" style="stop-color:#ff0080;stop-opacity:0.4"/>
      <stop offset="100%" style="stop-color:#7b2ff7;stop-opacity:0"/>
    </radialGradient>
  </defs>
  <rect width="1200" height="630" fill="url(#bg)"/>
  <!-- Fusion reactor -->
  <circle cx="400" cy="320" r="120" fill="none" stroke="#ff6b00" stroke-width="2" opacity="0.5"/>
  <circle cx="400" cy="320" r="80" fill="url(#plasma)"/>
  <circle cx="400" cy="320" r="40" fill="none" stroke="#fbbf24" stroke-width="3"/>
  <circle cx="400" cy="320" r="8" fill="#fbbf24"/>
  <!-- Energy lines to data center -->
  <line x1="520" y1="290" x2="700" y2="250" stroke="#fbbf24" stroke-width="2"/>
  <line x1="520" y1="320" x2="700" y2="320" stroke="#fbbf24" stroke-width="2"/>
  <line x1="520" y1="350" x2="700" y2="390" stroke="#fbbf24" stroke-width="2"/>
  <!-- Data center -->
  <rect x="700" y="220" width="200" height="200" rx="8" fill="rgba(6,78,59,0.3)" stroke="#34d399" stroke-width="2"/>
  <rect x="720" y="250" width="40" height="30" rx="2" fill="none" stroke="#34d399" stroke-width="1"/>
  <rect x="780" y="250" width="40" height="30" rx="2" fill="none" stroke="#34d399" stroke-width="1"/>
  <rect x="840" y="250" width="40" height="30" rx="2" fill="none" stroke="#34d399" stroke-width="1"/>
  <rect x="720" y="300" width="40" height="30" rx="2" fill="none" stroke="#34d399" stroke-width="1"/>
  <rect x="780" y="300" width="40" height="30" rx="2" fill="none" stroke="#34d399" stroke-width="1"/>
  <rect x="840" y="300" width="40" height="30" rx="2" fill="none" stroke="#34d399" stroke-width="1"/>
  <rect x="720" y="350" width="40" height="30" rx="2" fill="none" stroke="#34d399" stroke-width="1"/>
  <rect x="780" y="350" width="40" height="30" rx="2" fill="none" stroke="#34d399" stroke-width="1"/>
  <rect x="840" y="350" width="40" height="30" rx="2" fill="none" stroke="#34d399" stroke-width="1"/>
  <text x="750" y="440" font-family="monospace" font-size="14" fill="#34d399">AI Factory</text>
  <!-- Labels -->
  <text x="340" y="470" font-family="monospace" font-size="14" fill="#fbbf24">Fusion</text>
  <!-- Title -->
  <text x="100" y="80" font-family="sans-serif" font-size="28" fill="white" font-weight="bold">核聚变与数据中心</text>
  <text x="100" y="115" font-family="sans-serif" font-size="16" fill="#94a3b8">AI算力饥渴如何加速终极能源商业化</text>
  <text x="100" y="580" font-family="monospace" font-size="12" fill="#475569">2026-04-27 · 前沿科技深度分析</text>
</svg>