<svg xmlns="http://www.w3.org/2000/svg" viewBox="0 0 1200 630" width="1200" height="630">
  <rect width="1200" height="630" fill="#0f172a"/>
  <pattern id="grid" width="40" height="40" patternUnits="userSpaceOnUse">
    <path d="M 40 0 L 0 0 0 40" fill="none" stroke="#1e293b" stroke-width="0.5"/>
  </pattern>
  <rect width="1200" height="630" fill="url(#grid)"/>
  <!-- Chip layers -->
  <rect x="300" y="180" width="600" height="40" rx="4" fill="rgba(76,29,149,0.4)" stroke="#a78bfa" stroke-width="1.5"/>
  <text x="600" y="205" text-anchor="middle" fill="#a78bfa" font-family="monospace" font-size="13">A13 · 1.3nm</text>
  <rect x="320" y="230" width="560" height="40" rx="4" fill="rgba(76,29,149,0.3)" stroke="#a78bfa" stroke-width="1"/>
  <text x="600" y="255" text-anchor="middle" fill="#a78bfa" font-family="monospace" font-size="13">A12 · 1.2nm</text>
  <rect x="340" y="280" width="520" height="40" rx="4" fill="rgba(120,53,15,0.3)" stroke="#fbbf24" stroke-width="1"/>
  <text x="600" y="305" text-anchor="middle" fill="#fbbf24" font-family="monospace" font-size="13">N2U · 2nm Enhanced</text>
  <rect x="360" y="330" width="480" height="40" rx="4" fill="rgba(120,53,15,0.2)" stroke="#fbbf24" stroke-width="0.8"/>
  <text x="600" y="355" text-anchor="middle" fill="#fbbf24" font-family="monospace" font-size="13">N2 · 2nm GAA</text>
  <!-- TSV connections -->
  <line x1="450" y1="180" x2="450" y2="370" stroke="#22d3ee" stroke-width="1" stroke-dasharray="4,3"/>
  <line x1="600" y1="180" x2="600" y2="370" stroke="#22d3ee" stroke-width="1" stroke-dasharray="4,3"/>
  <line x1="750" y1="180" x2="750" y2="370" stroke="#22d3ee" stroke-width="1" stroke-dasharray="4,3"/>
  <text x="480" y="400" fill="#22d3ee" font-family="monospace" font-size="9" fill-opacity="0.6">TSV</text>
  <text x="630" y="400" fill="#22d3ee" font-family="monospace" font-size="9" fill-opacity="0.6">TSV</text>
  <text x="780" y="400" fill="#22d3ee" font-family="monospace" font-size="9" fill-opacity="0.6">TSV</text>
  <!-- Title -->
  <text x="600" y="500" text-anchor="middle" fill="white" font-family="monospace" font-size="36" font-weight="bold">A13: 埃米时代</text>
  <text x="600" y="540" text-anchor="middle" fill="#94a3b8" font-family="monospace" font-size="16">先进制程的机遇与暗礁 · 2026</text>
</svg>