<svg xmlns="http://www.w3.org/2000/svg" viewBox="0 0 1200 630" width="1200" height="630">
  <defs>
    <linearGradient id="bg" x1="0%" y1="0%" x2="100%" y2="100%">
      <stop offset="0%" style="stop-color:#1a1a2e"/>
      <stop offset="100%" style="stop-color:#16213e"/>
    </linearGradient>
    <linearGradient id="glow" x1="0%" y1="0%" x2="0%" y2="100%">
      <stop offset="0%" style="stop-color:#0f3460;stop-opacity:0.8"/>
      <stop offset="100%" style="stop-color:#1a1a2e;stop-opacity:0"/>
    </linearGradient>
  </defs>
  <rect width="1200" height="630" fill="url(#bg)"/>
  <!-- Memory grid -->
  <g opacity="0.15">
    <line x1="0" y1="0" x2="0" y2="630" stroke="#e94560" stroke-width="0.5" transform="translate(60)"/>
    <line x1="0" y1="0" x2="0" y2="630" stroke="#e94560" stroke-width="0.5" transform="translate(120)"/>
    <line x1="0" y1="0" x2="0" y2="630" stroke="#e94560" stroke-width="0.5" transform="translate(180)"/>
    <line x1="0" y1="0" x2="0" y2="630" stroke="#e94560" stroke-width="0.5" transform="translate(240)"/>
    <line x1="0" y1="0" x2="0" y2="630" stroke="#e94560" stroke-width="0.5" transform="translate(300)"/>
    <line x1="0" y1="0" x2="0" y2="630" stroke="#e94560" stroke-width="0.5" transform="translate(360)"/>
    <line x1="0" y1="0" x2="0" y2="630" stroke="#e94560" stroke-width="0.5" transform="translate(420)"/>
    <line x1="0" y1="0" x2="0" y2="630" stroke="#e94560" stroke-width="0.5" transform="translate(480)"/>
    <line x1="0" y1="0" x2="0" y2="630" stroke="#e94560" stroke-width="0.5" transform="translate(540)"/>
    <line x1="0" y1="0" x2="0" y2="630" stroke="#e94560" stroke-width="0.5" transform="translate(600)"/>
    <line x1="0" y1="0" x2="0" y2="630" stroke="#e94560" stroke-width="0.5" transform="translate(660)"/>
    <line x1="0" y1="0" x2="0" y2="630" stroke="#e94560" stroke-width="0.5" transform="translate(720)"/>
    <line x1="0" y1="0" x2="0" y2="630" stroke="#e94560" stroke-width="0.5" transform="translate(780)"/>
    <line x1="0" y1="0" x2="0" y2="630" stroke="#e94560" stroke-width="0.5" transform="translate(840)"/>
    <line x1="0" y1="0" x2="0" y2="630" stroke="#e94560" stroke-width="0.5" transform="translate(900)"/>
    <line x1="0" y1="0" x2="0" y2="630" stroke="#e94560" stroke-width="0.5" transform="translate(960)"/>
    <line x1="0" y1="0" x2="0" y2="630" stroke="#e94560" stroke-width="0.5" transform="translate(1020)"/>
    <line x1="0" y1="0" x2="0" y2="630" stroke="#e94560" stroke-width="0.5" transform="translate(1080)"/>
    <line x1="0" y1="0" x2="0" y2="630" stroke="#e94560" stroke-width="0.5" transform="translate(1140)"/>
    <line x1="0" y1="0" x2="1200" y2="0" stroke="#e94560" stroke-width="0.5" transform="translate(0,60)"/>
    <line x1="0" y1="0" x2="1200" y2="0" stroke="#e94560" stroke-width="0.5" transform="translate(0,120)"/>
    <line x1="0" y1="0" x2="1200" y2="0" stroke="#e94560" stroke-width="0.5" transform="translate(0,180)"/>
    <line x1="0" y1="0" x2="1200" y2="0" stroke="#e94560" stroke-width="0.5" transform="translate(0,240)"/>
    <line x1="0" y1="0" x2="1200" y2="0" stroke="#e94560" stroke-width="0.5" transform="translate(0,300)"/>
    <line x1="0" y1="0" x2="1200" y2="0" stroke="#e94560" stroke-width="0.5" transform="translate(0,360)"/>
    <line x1="0" y1="0" x2="1200" y2="0" stroke="#e94560" stroke-width="0.5" transform="translate(0,420)"/>
    <line x1="0" y1="0" x2="1200" y2="0" stroke="#e94560" stroke-width="0.5" transform="translate(0,480)"/>
    <line x1="0" y1="0" x2="1200" y2="0" stroke="#e94560" stroke-width="0.5" transform="translate(0,540)"/>
  </g>
  <!-- Highlighted memory blocks -->
  <rect x="120" y="120" width="60" height="60" fill="#e94560" opacity="0.6" rx="4"/>
  <rect x="180" y="120" width="60" height="60" fill="#e94560" opacity="0.35" rx="4"/>
  <rect x="120" y="180" width="60" height="60" fill="#e94560" opacity="0.2" rx="4"/>
  <rect x="300" y="60" width="60" height="60" fill="#0f3460" opacity="0.8" rx="4"/>
  <rect x="360" y="60" width="120" height="60" fill="#0f3460" opacity="0.5" rx="4"/>
  <rect x="300" y="120" width="180" height="60" fill="#0f3460" opacity="0.3" rx="4"/>
  <rect x="780" y="360" width="60" height="60" fill="#e94560" opacity="0.7" rx="4"/>
  <rect x="840" y="360" width="60" height="60" fill="#e94560" opacity="0.4" rx="4"/>
  <rect x="780" y="420" width="120" height="60" fill="#e94560" opacity="0.25" rx="4"/>
  <rect x="900" y="300" width="60" height="60" fill="#533483" opacity="0.6" rx="4"/>
  <rect x="960" y="300" width="60" height="60" fill="#533483" opacity="0.4" rx="4"/>
  <rect x="960" y="360" width="60" height="60" fill="#533483" opacity="0.3" rx="4"/>
  <rect x="60" y="420" width="120" height="60" fill="#0f3460" opacity="0.6" rx="4"/>
  <rect x="60" y="480" width="60" height="60" fill="#0f3460" opacity="0.35" rx="4"/>
  <rect x="540" y="180" width="60" height="120" fill="#533483" opacity="0.5" rx="4"/>
  <rect x="600" y="180" width="60" height="60" fill="#533483" opacity="0.3" rx="4"/>
  <rect x="1020" y="120" width="60" height="60" fill="#e94560" opacity="0.5" rx="4"/>
  <rect x="1080" y="120" width="60" height="120" fill="#0f3460" opacity="0.4" rx="4"/>
  <!-- Decorative dots -->
  <circle cx="450" cy="400" r="3" fill="#e94560" opacity="0.6"/>
  <circle cx="470" cy="420" r="2" fill="#e94560" opacity="0.4"/>
  <circle cx="700" cy="150" r="3" fill="#533483" opacity="0.5"/>
  <circle cx="250" cy="350" r="2" fill="#0f3460" opacity="0.6"/>
  <!-- Title -->
  <text x="600" y="290" text-anchor="middle" font-family="'PingFang SC','Microsoft YaHei','Noto Sans SC',sans-serif" font-size="42" font-weight="bold" fill="#ffffff" letter-spacing="2">谁还在用 jemalloc？</text>
  <text x="600" y="350" text-anchor="middle" font-family="'PingFang SC','Microsoft YaHei','Noto Sans SC',sans-serif" font-size="28" fill="#e94560" opacity="0.9" letter-spacing="3">2026 年内存分配器的文艺复兴</text>
  <!-- Subtle bottom line -->
  <rect x="440" y="380" width="320" height="2" fill="#e94560" opacity="0.3" rx="1"/>
</svg>