<svg xmlns="http://www.w3.org/2000/svg" viewBox="0 0 800 400">
  <defs>
    <linearGradient id="bg3" x1="0%" y1="0%" x2="100%" y2="100%">
      <stop offset="0%" style="stop-color:#1a1a2e"/>
      <stop offset="100%" style="stop-color:#0d1b2a"/>
    </linearGradient>
  </defs>
  <rect width="800" height="400" fill="url(#bg3)"/>
  <g opacity="0.7">
    <circle cx="200" cy="150" r="8" fill="#4ecdc4"/>
    <circle cx="300" cy="100" r="8" fill="#4ecdc4"/>
    <circle cx="350" cy="180" r="8" fill="#4ecdc4"/>
    <circle cx="250" cy="200" r="8" fill="#4ecdc4"/>
    <circle cx="150" cy="120" r="8" fill="#4ecdc4"/>
    <circle cx="400" cy="120" r="8" fill="#4ecdc4"/>
    <circle cx="450" cy="190" r="8" fill="#e94560"/>
    <circle cx="500" cy="140" r="8" fill="#e94560"/>
    <circle cx="550" cy="180" r="8" fill="#e94560"/>
    <circle cx="600" cy="120" r="8" fill="#e94560"/>
    <circle cx="650" cy="170" r="8" fill="#e94560"/>
    <line x1="200" y1="150" x2="300" y2="100" stroke="#4ecdc4" stroke-width="1" opacity="0.5"/>
    <line x1="200" y1="150" x2="250" y2="200" stroke="#4ecdc4" stroke-width="1" opacity="0.5"/>
    <line x1="300" y1="100" x2="350" y2="180" stroke="#4ecdc4" stroke-width="1" opacity="0.5"/>
    <line x1="350" y1="180" x2="400" y2="120" stroke="#4ecdc4" stroke-width="1" opacity="0.5"/>
    <line x1="150" y1="120" x2="200" y2="150" stroke="#4ecdc4" stroke-width="1" opacity="0.5"/>
    <line x1="250" y1="200" x2="350" y2="180" stroke="#4ecdc4" stroke-width="1" opacity="0.5"/>
    <line x1="450" y1="190" x2="500" y2="140" stroke="#e94560" stroke-width="1" opacity="0.5"/>
    <line x1="500" y1="140" x2="600" y2="120" stroke="#e94560" stroke-width="1" opacity="0.5"/>
    <line x1="550" y1="180" x2="650" y2="170" stroke="#e94560" stroke-width="1" opacity="0.5"/>
    <line x1="450" y1="190" x2="550" y2="180" stroke="#e94560" stroke-width="1" opacity="0.5"/>
    <line x1="400" y1="120" x2="500" y2="140" stroke="#f7dc6f" stroke-width="1.5" stroke-dasharray="4,3"/>
  </g>
  <text x="200" y="260" font-family="monospace" font-size="11" fill="#4ecdc4">Vector Store</text>
  <text x="500" y="260" font-family="monospace" font-size="11" fill="#e94560">Knowledge Graph</text>
  <text x="400" y="340" font-family="sans-serif" font-size="24" fill="white" text-anchor="middle" font-weight="bold">RAG系统的三次进化</text>
  <text x="400" y="368" font-family="sans-serif" font-size="13" fill="#8899aa" text-anchor="middle">从向量搜索到Graph-RAG的架构革命</text>
</svg>