<svg xmlns="http://www.w3.org/2000/svg" viewBox="0 0 1200 630">
  <defs>
    <linearGradient id="bg" x1="0%" y1="0%" x2="100%" y2="100%">
      <stop offset="0%" style="stop-color:#0d1117"/>
      <stop offset="100%" style="stop-color:#0a1628"/>
    </linearGradient>
  </defs>
  <rect width="1200" height="630" fill="url(#bg)"/>
  <rect x="300" y="60" width="600" height="80" fill="none" stroke="#f6821f" stroke-width="2" rx="6"/>
  <text x="600" y="110" text-anchor="middle" font-family="monospace" font-size="18" fill="#f6821f">Workflows Engine (Platform)</text>
  <rect x="300" y="170" width="600" height="80" fill="none" stroke="#58a6ff" stroke-width="2" rx="6"/>
  <text x="600" y="220" text-anchor="middle" font-family="monospace" font-size="18" fill="#58a6ff">Worker Loader (Router)</text>
  <g>
    <rect x="300" y="280" width="180" height="60" fill="none" stroke="#3fb950" stroke-width="1.5" rx="4"/>
    <text x="390" y="315" text-anchor="middle" font-family="monospace" font-size="12" fill="#3fb950">Tenant A</text>
    <rect x="510" y="280" width="180" height="60" fill="none" stroke="#3fb950" stroke-width="1.5" rx="4"/>
    <text x="600" y="315" text-anchor="middle" font-family="monospace" font-size="12" fill="#3fb950">Tenant B</text>
    <rect x="720" y="280" width="180" height="60" fill="none" stroke="#3fb950" stroke-width="1.5" rx="4"/>
    <text x="810" y="315" text-anchor="middle" font-family="monospace" font-size="12" fill="#3fb950">Tenant N</text>
  </g>
  <line x1="600" y1="140" x2="600" y2="170" stroke="#8b949e" stroke-width="1"/>
  <line x1="600" y1="250" x2="390" y2="280" stroke="#8b949e" stroke-width="1"/>
  <line x1="600" y1="250" x2="600" y2="280" stroke="#8b949e" stroke-width="1"/>
  <line x1="600" y1="250" x2="810" y2="280" stroke="#8b949e" stroke-width="1"/>
  <text x="600" y="420" text-anchor="middle" font-family="sans-serif" font-size="30" fill="#c9d1d9">Dynamic Workflows</text>
  <text x="600" y="465" text-anchor="middle" font-family="sans-serif" font-size="22" fill="#8b949e">持久化执行 × 多租户隔离 × 零空闲成本</text>
  <text x="600" y="530" text-anchor="middle" font-family="monospace" font-size="16" fill="#f6821f">~300 lines TypeScript · 50K concurrent · ms cold start</text>
  <rect x="50" y="580" width="200" height="3" fill="#f6821f" rx="1"/>
</svg>