<svg xmlns="http://www.w3.org/2000/svg" viewBox="0 0 1200 630">
  <defs>
    <linearGradient id="bg" x1="0%" y1="0%" x2="100%" y2="100%">
      <stop offset="0%" style="stop-color:#0a0a1a"/>
      <stop offset="100%" style="stop-color:#1a0a2e"/>
    </linearGradient>
    <linearGradient id="quantum" x1="0%" y1="0%" x2="100%" y2="0%">
      <stop offset="0%" style="stop-color:#00d4ff"/>
      <stop offset="50%" style="stop-color:#7b2ff7"/>
      <stop offset="100%" style="stop-color:#ff0080"/>
    </linearGradient>
  </defs>
  <rect width="1200" height="630" fill="url(#bg)"/>
  <circle cx="300" cy="315" r="120" fill="none" stroke="#00d4ff" stroke-width="2" opacity="0.5"/>
  <circle cx="300" cy="315" r="80" fill="none" stroke="#00d4ff" stroke-width="1" opacity="0.3"/>
  <circle cx="300" cy="315" r="40" fill="none" stroke="#7b2ff7" stroke-width="2" opacity="0.7"/>
  <circle cx="300" cy="315" r="8" fill="#00d4ff"/>
  <text x="280" y="310" font-family="monospace" font-size="14" fill="#00d4ff" opacity="0.6">|0⟩</text>
  <text x="280" y="340" font-family="monospace" font-size="14" fill="#7b2ff7" opacity="0.6">|1⟩</text>
  <line x1="420" y1="280" x2="580" y2="280" stroke="url(#quantum)" stroke-width="2" stroke-dasharray="8,4"/>
  <line x1="420" y1="315" x2="580" y2="315" stroke="url(#quantum)" stroke-width="2"/>
  <line x1="420" y1="350" x2="580" y2="350" stroke="url(#quantum)" stroke-width="2" stroke-dasharray="8,4"/>
  <rect x="500" y="260" width="80" height="110" rx="4" fill="none" stroke="#ff0080" stroke-width="2" opacity="0.5"/>
  <text x="520" y="320" font-family="monospace" font-size="14" fill="#ff0080">ZKP</text>
  <circle cx="900" cy="315" r="100" fill="none" stroke="#34d399" stroke-width="2" opacity="0.5"/>
  <text x="860" y="310" font-family="monospace" font-size="16" fill="#34d399">经典</text>
  <text x="855" y="340" font-family="monospace" font-size="16" fill="#34d399">反击</text>
  <line x1="640" y1="315" x2="800" y2="315" stroke="#fbbf24" stroke-width="2"/>
  <polygon points="795,310 805,315 795,320" fill="#fbbf24"/>
  <text x="680" y="305" font-family="monospace" font-size="11" fill="#fbbf24">DEFEATED</text>
  <text x="100" y="80" font-family="sans-serif" font-size="28" fill="white" font-weight="bold">量子密码分析的零知识博弈</text>
  <text x="100" y="115" font-family="sans-serif" font-size="16" fill="#94a3b8">Trail of Bits vs Google Quantum AI</text>
  <text x="100" y="580" font-family="monospace" font-size="12" fill="#475569">2026-04-27 · 前沿科技深度分析</text>
</svg>