<svg xmlns="http://www.w3.org/2000/svg" viewBox="0 0 1200 630" font-family="-apple-system,BlinkMacSystemFont,'Segoe UI','Helvetica Neue',Arial,sans-serif">
  <defs>
    <radialGradient id="bg3" cx="0.7" cy="0.3" r="0.9">
      <stop offset="0%" stop-color="#0f1f2e"/>
      <stop offset="100%" stop-color="#0a0e1a"/>
    </radialGradient>
    <radialGradient id="gel" cx="0.5" cy="0.5" r="0.5">
      <stop offset="0%" stop-color="#22d3ee" stop-opacity="0.7"/>
      <stop offset="60%" stop-color="#0891b2" stop-opacity="0.4"/>
      <stop offset="100%" stop-color="#0891b2" stop-opacity="0"/>
    </radialGradient>
    <radialGradient id="light" cx="0.5" cy="0.5" r="0.5">
      <stop offset="0%" stop-color="#fde047" stop-opacity="0.8"/>
      <stop offset="100%" stop-color="#fde047" stop-opacity="0"/>
    </radialGradient>
  </defs>
  <rect width="1200" height="630" fill="url(#bg3)"/>
  <!-- magno-bot lollipops -->
  <g transform="translate(820,140)">
    <g opacity="0.85">
      <circle cx="0" cy="0" r="36" fill="url(#gel)"/>
      <line x1="0" y1="36" x2="0" y2="110" stroke="#67e8f9" stroke-width="3" opacity="0.7"/>
      <circle cx="0" cy="0" r="36" fill="none" stroke="#22d3ee" stroke-width="2"/>
    </g>
    <g transform="translate(80,40)" opacity="0.7">
      <circle cx="0" cy="0" r="28" fill="url(#gel)"/>
      <line x1="0" y1="28" x2="0" y2="90" stroke="#67e8f9" stroke-width="2.5" opacity="0.7"/>
      <circle cx="0" cy="0" r="28" fill="none" stroke="#22d3ee" stroke-width="2"/>
    </g>
    <g transform="translate(-80,30)" opacity="0.7">
      <circle cx="0" cy="0" r="30" fill="url(#gel)"/>
      <line x1="0" y1="30" x2="0" y2="100" stroke="#67e8f9" stroke-width="2.5" opacity="0.7"/>
      <circle cx="0" cy="0" r="30" fill="none" stroke="#22d3ee" stroke-width="2"/>
    </g>
    <g transform="translate(160,90)" opacity="0.55">
      <circle cx="0" cy="0" r="22" fill="url(#gel)"/>
      <line x1="0" y1="22" x2="0" y2="75" stroke="#67e8f9" stroke-width="2" opacity="0.6"/>
    </g>
  </g>
  <!-- magnetic field arrow -->
  <g stroke="#a78bfa" stroke-width="2" fill="none" opacity="0.6" transform="translate(680,240)">
    <path d="M 0 0 Q 50 -20 100 0 T 200 0"/>
    <path d="M 195 -6 L 205 0 L 195 6" fill="#a78bfa"/>
  </g>
  <!-- light blob -->
  <circle cx="940" cy="420" r="110" fill="url(#light)" opacity="0.6"/>
  <!-- waveguide pattern (hydrogel-on-skin) -->
  <g stroke="#22d3ee" stroke-width="1" opacity="0.3" fill="none">
    <path d="M 880 460 Q 920 440 960 460 T 1040 460"/>
    <path d="M 880 480 Q 920 460 960 480 T 1040 480"/>
    <path d="M 880 500 Q 920 480 960 500 T 1040 500"/>
  </g>
  <!-- title -->
  <g fill="#f1f5f9">
    <text x="60" y="110" font-size="20" fill="#94a3b8" letter-spacing="6">ROBOTICS · SOFT MATERIALS</text>
    <text x="60" y="190" font-size="50" font-weight="800">跳过人形赛道</text>
    <text x="60" y="260" font-size="32" font-weight="600" fill="#67e8f9">MIT 三项软体材料突破</text>
    <text x="60" y="335" font-size="22" fill="#cbd5e1">磁控水凝胶 / 光致离子凝胶 / 机器人化建筑</text>
    <text x="60" y="375" font-size="22" fill="#cbd5e1">柔性、可编程、生物兼容 — 重写"机器"的定义</text>
  </g>
  <rect x="60" y="280" width="6" height="60" fill="#22d3ee"/>
  <text x="60" y="608" font-size="14" font-family="ui-monospace,Menlo,monospace" fill="#64748b">XIEJIAYUN.GITHUB.IO · 2026-05-18</text>
</svg>
