<svg xmlns="http://www.w3.org/2000/svg" viewBox="0 0 1200 630" width="1200" height="630">
  <defs>
    <linearGradient id="bg" x1="0%" y1="0%" x2="100%" y2="100%">
      <stop offset="0%" style="stop-color:#0f172a"/>
      <stop offset="100%" style="stop-color:#1a0a2e"/>
    </linearGradient>
    <filter id="glow"><feGaussianBlur stdDeviation="20"/></filter>
  </defs>
  <rect width="1200" height="630" fill="url(#bg)"/>
  <!-- Wafer pattern -->
  <circle cx="300" cy="350" r="200" fill="none" stroke="#1e293b" stroke-width="1"/>
  <circle cx="300" cy="350" r="170" fill="none" stroke="#1e293b" stroke-width="0.5"/>
  <circle cx="300" cy="350" r="140" fill="none" stroke="#1e293b" stroke-width="0.5"/>
  <circle cx="300" cy="350" r="110" fill="none" stroke="#1e293b" stroke-width="0.5"/>
  <!-- Die grid on wafer -->
  <g opacity="0.3">
    <rect x="230" y="250" width="25" height="25" rx="2" fill="rgba(76,29,149,0.5)" stroke="#a78bfa" stroke-width="0.5"/>
    <rect x="260" y="250" width="25" height="25" rx="2" fill="rgba(76,29,149,0.5)" stroke="#a78bfa" stroke-width="0.5"/>
    <rect x="290" y="250" width="25" height="25" rx="2" fill="rgba(76,29,149,0.5)" stroke="#a78bfa" stroke-width="0.5"/>
    <rect x="320" y="250" width="25" height="25" rx="2" fill="rgba(76,29,149,0.5)" stroke="#a78bfa" stroke-width="0.5"/>
    <rect x="200" y="280" width="25" height="25" rx="2" fill="rgba(76,29,149,0.5)" stroke="#a78bfa" stroke-width="0.5"/>
    <rect x="230" y="280" width="25" height="25" rx="2" fill="rgba(6,78,59,0.5)" stroke="#34d399" stroke-width="0.5"/>
    <rect x="260" y="280" width="25" height="25" rx="2" fill="rgba(6,78,59,0.5)" stroke="#34d399" stroke-width="0.5"/>
    <rect x="290" y="280" width="25" height="25" rx="2" fill="rgba(6,78,59,0.5)" stroke="#34d399" stroke-width="0.5"/>
    <rect x="320" y="280" width="25" height="25" rx="2" fill="rgba(6,78,59,0.5)" stroke="#34d399" stroke-width="0.5"/>
    <rect x="350" y="280" width="25" height="25" rx="2" fill="rgba(76,29,149,0.5)" stroke="#a78bfa" stroke-width="0.5"/>
    <rect x="200" y="310" width="25" height="25" rx="2" fill="rgba(6,78,59,0.5)" stroke="#34d399" stroke-width="0.5"/>
    <rect x="230" y="310" width="25" height="25" rx="2" fill="rgba(8,51,68,0.5)" stroke="#22d3ee" stroke-width="0.8"/>
    <rect x="260" y="310" width="25" height="25" rx="2" fill="rgba(8,51,68,0.5)" stroke="#22d3ee" stroke-width="0.8"/>
    <rect x="290" y="310" width="25" height="25" rx="2" fill="rgba(8,51,68,0.5)" stroke="#22d3ee" stroke-width="0.8"/>
    <rect x="320" y="310" width="25" height="25" rx="2" fill="rgba(8,51,68,0.5)" stroke="#22d3ee" stroke-width="0.8"/>
    <rect x="350" y="310" width="25" height="25" rx="2" fill="rgba(6,78,59,0.5)" stroke="#34d399" stroke-width="0.5"/>
    <rect x="200" y="340" width="25" height="25" rx="2" fill="rgba(6,78,59,0.5)" stroke="#34d399" stroke-width="0.5"/>
    <rect x="230" y="340" width="25" height="25" rx="2" fill="rgba(8,51,68,0.5)" stroke="#22d3ee" stroke-width="0.8"/>
    <rect x="260" y="340" width="25" height="25" rx="2" fill="rgba(120,53,15,0.5)" stroke="#fbbf24" stroke-width="1"/>
    <rect x="290" y="340" width="25" height="25" rx="2" fill="rgba(120,53,15,0.5)" stroke="#fbbf24" stroke-width="1"/>
    <rect x="320" y="340" width="25" height="25" rx="2" fill="rgba(8,51,68,0.5)" stroke="#22d3ee" stroke-width="0.8"/>
    <rect x="350" y="340" width="25" height="25" rx="2" fill="rgba(6,78,59,0.5)" stroke="#34d399" stroke-width="0.5"/>
  </g>
  <!-- Arrow from wafer to system -->
  <line x1="520" y1="350" x2="620" y2="350" stroke="#94a3b8" stroke-width="2" marker-end="url(#arr)"/>
  <defs><marker id="arr" markerWidth="10" markerHeight="7" refX="9" refY="3.5" orient="auto"><polygon points="0 0, 10 3.5, 0 7" fill="#94a3b8"/></marker></defs>
  <text x="570" y="340" fill="#64748b" font-family="monospace" font-size="10" text-anchor="middle">System</text>
  <text x="570" y="355" fill="#64748b" font-family="monospace" font-size="10" text-anchor="middle">Integration</text>
  <!-- System-level diagram on right -->
  <!-- 3D stack visualization -->
  <rect x="650" y="250" width="400" height="40" rx="4" fill="rgba(8,51,68,0.4)" stroke="#22d3ee" stroke-width="1.5"/>
  <text x="850" y="275" fill="#22d3ee" font-family="monospace" font-size="13" text-anchor="middle">HBM Memory Stack</text>
  <rect x="650" y="310" width="400" height="50" rx="4" fill="rgba(76,29,149,0.3)" stroke="#a78bfa" stroke-width="1.5"/>
  <text x="850" y="340" fill="#a78bfa" font-family="monospace" font-size="14" text-anchor="middle">GPU / AI Accelerator Die (A13)</text>
  <rect x="650" y="380" width="400" height="40" rx="4" fill="rgba(6,78,59,0.3)" stroke="#34d399" stroke-width="1.5"/>
  <text x="850" y="405" fill="#34d399" font-family="monospace" font-size="13" text-anchor="middle">CoWoS Interposer</text>
  <rect x="650" y="440" width="400" height="40" rx="4" fill="rgba(120,53,15,0.3)" stroke="#fbbf24" stroke-width="1.5"/>
  <text x="850" y="465" fill="#fbbf24" font-family="monospace" font-size="13" text-anchor="middle">Organic Substrate + Power Rail</text>
  <!-- Vertical connection lines -->
  <line x1="750" y1="290" x2="750" y2="310" stroke="#94a3b8" stroke-width="1" stroke-dasharray="3,3"/>
  <line x1="950" y1="290" x2="950" y2="310" stroke="#94a3b8" stroke-width="1" stroke-dasharray="3,3"/>
  <line x1="750" y1="360" x2="750" y2="380" stroke="#94a3b8" stroke-width="1" stroke-dasharray="3,3"/>
  <line x1="950" y1="360" x2="950" y2="380" stroke="#94a3b8" stroke-width="1" stroke-dasharray="3,3"/>
  <line x1="750" y1="420" x2="750" y2="440" stroke="#94a3b8" stroke-width="1" stroke-dasharray="3,3"/>
  <line x1="950" y1="420" x2="950" y2="440" stroke="#94a3b8" stroke-width="1" stroke-dasharray="3,3"/>
  <!-- Title -->
  <text x="600" y="80" fill="white" font-family="monospace" font-size="48" font-weight="bold" text-anchor="middle">TSMC 2026</text>
  <text x="600" y="130" fill="#94a3b8" font-family="monospace" font-size="22" text-anchor="middle">From Chips to AI Systems</text>
  <!-- Process nodes -->
  <g>
    <rect x="100" y="560" width="80" height="40" rx="4" fill="rgba(76,29,149,0.3)" stroke="#a78bfa" stroke-width="1"/>
    <text x="140" y="585" fill="#a78bfa" font-family="monospace" font-size="14" text-anchor="middle">N2U</text>
    <rect x="220" y="560" width="80" height="40" rx="4" fill="rgba(6,78,59,0.3)" stroke="#34d399" stroke-width="1"/>
    <text x="260" y="585" fill="#34d399" font-family="monospace" font-size="14" text-anchor="middle">A16</text>
    <rect x="340" y="560" width="80" height="40" rx="4" fill="rgba(8,51,68,0.4)" stroke="#22d3ee" stroke-width="1"/>
    <text x="380" y="585" fill="#22d3ee" font-family="monospace" font-size="14" text-anchor="middle">A12</text>
    <rect x="460" y="560" width="80" height="40" rx="4" fill="rgba(120,53,15,0.3)" stroke="#fbbf24" stroke-width="1.5"/>
    <text x="500" y="585" fill="#fbbf24" font-family="monospace" font-size="14" font-weight="bold" text-anchor="middle">A13</text>
  </g>
  <text x="340" y="555" fill="#64748b" font-family="monospace" font-size="10" text-anchor="middle">Advanced Process Roadmap →</text>
</svg>
