<svg xmlns="http://www.w3.org/2000/svg" viewBox="0 0 1200 630">
  <defs>
    <linearGradient id="bg" x1="0%" y1="0%" x2="100%" y2="100%">
      <stop offset="0%" style="stop-color:#1a0a0a"/>
      <stop offset="100%" style="stop-color:#0a0a2e"/>
    </linearGradient>
  </defs>
  <rect width="1200" height="630" fill="url(#bg)"/>
  <!-- Brain/Agent icon -->
  <circle cx="300" cy="300" r="80" fill="none" stroke="#a78bfa" stroke-width="2"/>
  <circle cx="270" cy="280" r="6" fill="#a78bfa"/>
  <circle cx="330" cy="280" r="6" fill="#a78bfa"/>
  <path d="M 270 320 Q 300 350 330 320" fill="none" stroke="#a78bfa" stroke-width="2"/>
  <text x="265" y="395" font-family="monospace" font-size="14" fill="#a78bfa">AGENT</text>
  <!-- Failure chains -->
  <line x1="400" y1="240" x2="550" y2="240" stroke="#34d399" stroke-width="2"/>
  <circle cx="560" cy="240" r="8" fill="#34d399"/>
  <text x="575" y="245" font-family="monospace" font-size="11" fill="#34d399">Step 1 ✓ 95%</text>
  <line x1="400" y1="280" x2="550" y2="280" stroke="#fbbf24" stroke-width="2"/>
  <circle cx="560" cy="280" r="8" fill="#fbbf24"/>
  <text x="575" y="285" font-family="monospace" font-size="11" fill="#fbbf24">Step 3 ✓ 88%</text>
  <line x1="400" y1="320" x2="550" y2="320" stroke="#fb7185" stroke-width="2"/>
  <circle cx="560" cy="320" r="8" fill="#fb7185"/>
  <text x="575" y="325" font-family="monospace" font-size="11" fill="#fb7185">Step 5 ✗ 52%</text>
  <line x1="400" y1="360" x2="550" y2="360" stroke="#ef4444" stroke-width="2"/>
  <circle cx="560" cy="360" r="8" fill="#ef4444"/>
  <text x="575" y="365" font-family="monospace" font-size="11" fill="#ef4444">Step 10 ✗ 27%</text>
  <!-- Graph-RAG nodes -->
  <circle cx="950" cy="250" r="20" fill="none" stroke="#22d3ee" stroke-width="2"/>
  <circle cx="1020" cy="300" r="20" fill="none" stroke="#22d3ee" stroke-width="2"/>
  <circle cx="880" cy="300" r="20" fill="none" stroke="#22d3ee" stroke-width="2"/>
  <circle cx="950" cy="370" r="20" fill="none" stroke="#22d3ee" stroke-width="2"/>
  <line x1="950" y1="270" x2="1020" y2="280" stroke="#22d3ee" stroke-width="1"/>
  <line x1="950" y1="270" x2="880" y2="280" stroke="#22d3ee" stroke-width="1"/>
  <line x1="880" y1="320" x2="950" y2="350" stroke="#22d3ee" stroke-width="1"/>
  <line x1="1020" y1="320" x2="950" y2="350" stroke="#22d3ee" stroke-width="1"/>
  <text x="900" y="420" font-family="monospace" font-size="13" fill="#22d3ee">Graph-RAG</text>
  <!-- Title -->
  <text x="100" y="80" font-family="sans-serif" font-size="28" fill="white" font-weight="bold">AI Agent的阿喀琉斯之踵</text>
  <text x="100" y="115" font-family="sans-serif" font-size="16" fill="#94a3b8">记忆·推理·失败模式的深度解剖</text>
  <text x="100" y="580" font-family="monospace" font-size="12" fill="#475569">2026-04-27 · 前沿科技深度分析</text>
</svg>