<svg xmlns="http://www.w3.org/2000/svg" viewBox="0 0 800 400">
  <defs>
    <linearGradient id="bg4" x1="0%" y1="0%" x2="100%" y2="100%">
      <stop offset="0%" style="stop-color:#0c1222"/>
      <stop offset="100%" style="stop-color:#1a2744"/>
    </linearGradient>
  </defs>
  <rect width="800" height="400" fill="url(#bg4)"/>
  <!-- Chiplet grid -->
  <rect x="280" y="120" width="60" height="60" rx="4" fill="#2563eb" opacity="0.7"/>
  <rect x="350" y="120" width="60" height="60" rx="4" fill="#7c3aed" opacity="0.7"/>
  <rect x="420" y="120" width="60" height="60" rx="4" fill="#2563eb" opacity="0.7"/>
  <rect x="280" y="190" width="60" height="60" rx="4" fill="#7c3aed" opacity="0.7"/>
  <rect x="350" y="190" width="60" height="60" rx="4" fill="#059669" opacity="0.7"/>
  <rect x="420" y="190" width="60" height="60" rx="4" fill="#7c3aed" opacity="0.7"/>
  <!-- Light beams for photonics -->
  <line x1="100" y1="150" x2="270" y2="150" stroke="#22d3ee" stroke-width="2" opacity="0.6"/>
  <line x1="100" y1="220" x2="270" y2="220" stroke="#22d3ee" stroke-width="2" opacity="0.6"/>
  <line x1="490" y1="150" x2="700" y2="150" stroke="#22d3ee" stroke-width="2" opacity="0.6"/>
  <line x1="490" y1="220" x2="700" y2="220" stroke="#22d3ee" stroke-width="2" opacity="0.6"/>
  <circle cx="100" cy="150" r="3" fill="#22d3ee"/>
  <circle cx="100" cy="220" r="3" fill="#22d3ee"/>
  <circle cx="700" cy="150" r="3" fill="#22d3ee"/>
  <circle cx="700" cy="220" r="3" fill="#22d3ee"/>
  <text x="350" y="165" fill="#fff" font-family="monospace" font-size="9" text-anchor="middle">CPU</text>
  <text x="420" y="165" fill="#fff" font-family="monospace" font-size="9" text-anchor="middle">GPU</text>
  <text x="350" y="225" fill="#fff" font-family="monospace" font-size="9" text-anchor="middle">PHY</text>
  <text x="400" y="320" text-anchor="middle" fill="#fff" font-family="monospace" font-size="22" font-weight="bold">SILICON PHOTONICS × CHIPLET</text>
  <text x="400" y="348" text-anchor="middle" fill="#94a3b8" font-family="monospace" font-size="13">The Next Decade of Data Centers</text>
</svg>