<svg xmlns="http://www.w3.org/2000/svg" viewBox="0 0 1200 630">
  <defs>
    <linearGradient id="bg3" x1="0%" y1="0%" x2="100%" y2="100%">
      <stop offset="0%" style="stop-color:#0a1628"/>
      <stop offset="100%" style="stop-color:#162840"/>
    </linearGradient>
  </defs>
  <rect width="1200" height="630" fill="url(#bg3)"/>
  <!-- K8s wheel -->
  <circle cx="400" cy="300" r="100" fill="none" stroke="#326ce5" stroke-width="3"/>
  <circle cx="400" cy="300" r="30" fill="#326ce5" opacity="0.3"/>
  <text x="400" y="310" text-anchor="middle" font-family="Arial,sans-serif" font-size="28" fill="#326ce5">K8s</text>
  <!-- Agent box -->
  <rect x="650" y="210" width="200" height="180" rx="15" fill="none" stroke="#00d4aa" stroke-width="3"/>
  <text x="750" y="270" text-anchor="middle" font-family="Arial,sans-serif" font-size="20" fill="#00d4aa">Agent</text>
  <text x="750" y="300" text-anchor="middle" font-family="Arial,sans-serif" font-size="20" fill="#00d4aa">Sandbox</text>
  <rect x="680" y="320" width="50" height="30" rx="5" fill="#00d4aa20" stroke="#00d4aa" stroke-width="1"/>
  <text x="705" y="340" text-anchor="middle" font-family="Arial,sans-serif" font-size="11" fill="#00d4aa">Tool</text>
  <rect x="740" y="320" width="50" height="30" rx="5" fill="#00d4aa20" stroke="#00d4aa" stroke-width="1"/>
  <text x="765" y="340" text-anchor="middle" font-family="Arial,sans-serif" font-size="11" fill="#00d4aa">Tool</text>
  <rect x="800" y="320" width="50" height="30" rx="5" fill="#00d4aa20" stroke="#00d4aa" stroke-width="1"/>
  <text x="825" y="340" text-anchor="middle" font-family="Arial,sans-serif" font-size="11" fill="#00d4aa">Tool</text>
  <!-- Arrow -->
  <line x1="510" y1="300" x2="640" y2="300" stroke="#fff" stroke-width="2" opacity="0.5"/>
  <polygon points="640,295 650,300 640,305" fill="#fff" opacity="0.5"/>
  <text x="600" y="100" text-anchor="middle" font-family="Arial,sans-serif" font-size="36" font-weight="bold" fill="#fff">AI Agent × 云原生</text>
  <text x="600" y="500" text-anchor="middle" font-family="Arial,sans-serif" font-size="24" fill="#326ce5">Kubernetes v1.36 · Agents SDK · CNCF</text>
  <text x="600" y="570" text-anchor="middle" font-family="Arial,sans-serif" font-size="18" fill="#555">前沿科技 · 深度分析</text>
</svg>