<svg xmlns="http://www.w3.org/2000/svg" viewBox="0 0 1200 630" width="1200" height="630">
  <defs>
    <linearGradient id="bg" x1="0" y1="0" x2="1" y2="1">
      <stop offset="0" stop-color="#0a1428"/>
      <stop offset="1" stop-color="#28140a"/>
    </linearGradient>
  </defs>
  <rect width="1200" height="630" fill="url(#bg)"/>
  <g opacity="0.1" stroke="#fbbf24" stroke-width="1">
    <path d="M0 90 H1200 M0 180 H1200 M0 270 H1200 M0 360 H1200 M0 450 H1200 M0 540 H1200"/>
  </g>
  <g transform="translate(80,130)">
    <text fill="#fbbf24" font-family="ui-sans-serif" font-size="56" font-weight="900">五座 2nm 齐启</text>
    <text y="62" fill="#ef4444" font-family="ui-sans-serif" font-size="40" font-weight="700">服务器 CPU 反而短缺</text>
    <text y="130" fill="#cbd5e1" font-family="ui-sans-serif" font-size="22">先进制程红利正被极端不均衡地分配</text>
  </g>
  <g transform="translate(80,330)" font-family="monospace">
    <text fill="#7dd3fc" font-size="18" y="0">2026 台积电 2nm 客户分配</text>
    <g transform="translate(0,20)" font-size="15" fill="#cbd5e1">
      <rect x="0" y="10" width="240" height="20" fill="#3b82f6"/><text x="250" y="26">Apple 24%</text>
      <rect x="0" y="40" width="220" height="20" fill="#22c55e"/><text x="250" y="56">NVIDIA 22%</text>
      <rect x="0" y="70" width="120" height="20" fill="#a855f7"/><text x="250" y="86">云厂自研 12%</text>
      <rect x="0" y="100" width="120" height="20" fill="#fbbf24"/><text x="250" y="116">AMD 12%</text>
      <rect x="0" y="130" width="60" height="20" fill="#ef4444"/><text x="250" y="146">Intel 6%</text>
      <rect x="0" y="160" width="40" height="20" fill="#94a3b8"/><text x="250" y="176">中国大陆 0%</text>
    </g>
  </g>
  <text x="80" y="600" fill="#64748b" font-family="monospace" font-size="14">2026 · 半导体产能格局深度</text>
</svg>
